<?xml version="1.0" encoding="utf-8"?>
<!DOCTYPE svg PUBLIC "-//W3C//DTD SVG 1.0//EN" "http://www.w3.org/TR/2001/REC-SVG-20010904/DTD/svg10.dtd">
<svg version="1.0" xmlns="http://www.w3.org/2000/svg" width="290px" height="299px" viewBox="0 0 290 299" preserveAspectRatio="xMidYMid meet">
 <g fill="#ffffff">
  <path d="M135 298.4 c-59.1 -5.2 -108 -44.1 -126.9 -100.9 -10.2 -30.8 -10.2 -65 0 -96 17.1 -51.7 60.3 -89.6 113 -99.1 12.6 -2.2 35.2 -2.2 47.8 0 46 8.3 84.3 37.5 105.1 80.1 20.8 42.5 20.8 91.5 0 134 -23.9 49 -70.3 79.6 -124 81.8 -5.8 0.3 -12.5 0.3 -15 0.1z m15.8 -147.6 l0.2 -121.8 -7 0 -7 0 0 121.3 c0 66.8 0.3 121.7 0.7 122.1 0.4 0.4 3.4 0.6 6.8 0.4 l6 -0.3 0.3 -121.7z m83.6 1.2 c1.8 -4 -0.6 -7 -20.9 -26.2 -11.3 -10.6 -20.5 -19.7 -20.5 -20.3 0 -0.5 -2 1.1 -4.5 3.5 l-4.6 4.5 16.6 16 c21.9 21.1 21.7 19 2.5 37.4 -7.7 7.3 -15.2 14.3 -16.6 15.4 l-2.6 2 4.3 4.3 4.2 4.3 20.6 -19.5 c11.3 -10.7 21 -20.3 21.5 -21.4z m-137.1 36.2 l3.7 -3.8 -11.8 -12.5 c-17.6 -18.8 -18.2 -19.5 -18.2 -23.4 0 -1.9 0.6 -3.8 1.3 -4.2 0.7 -0.4 7.5 -7.5 15.1 -15.6 l13.9 -14.8 -3.9 -4 c-2.1 -2.1 -4.1 -3.8 -4.4 -3.7 -1.3 0.6 -37 38.9 -38 40.8 -0.8 1.5 -0.7 2.6 0.2 4.4 1.4 2.7 36.6 40.6 37.7 40.6 0.4 0 2.4 -1.7 4.4 -3.8z"/>
 </g>
 <g fill="#f2f2f2">
  <path d="M134.7 275.4 c-0.4 -0.4 -0.7 -56.7 -0.7 -125.1 l0 -124.3 10 0 10 0 -0.2 124.8 -0.3 124.7 -9 0.3 c-5 0.1 -9.4 0 -9.8 -0.4z"/>
  <path d="M209.1 155.3 c0.8 -1 2.3 -2.6 3.4 -3.5 1.7 -1.5 1.8 -1.9 0.5 -2.8 -0.8 -0.5 -1.1 -1 -0.6 -1 0.5 0 0.1 -0.9 -1 -2.1 -1.8 -2 -1.8 -2 2.1 -1.7 3.9 0.3 4 0.4 4.3 4.6 0.3 3.7 0.1 4.2 -1.7 4.2 -1.4 0 -2.1 0.6 -2.1 2 0 1.6 -0.7 2 -3.1 2 -2.8 0 -3 -0.2 -1.8 -1.7z"/>
  <path d="M71 149.5 c0 -1.9 0.4 -3.5 0.9 -3.5 0.5 0 1.1 -0.9 1.4 -2 0.4 -1.5 1.4 -2 3.6 -2 3.1 0 3.1 0 1.6 2.4 -0.9 1.3 -2.3 2.7 -3.2 3 -1.4 0.6 -1.3 0.9 0.1 3.1 1.6 2.5 1.6 2.5 -1.4 2.5 -2.8 0 -3 -0.3 -3 -3.5z"/>
  <path d="M192 105 c0 -0.5 -0.9 -1 -2 -1 -1.8 0 -1.8 -0.1 -0.3 -2.8 l1.6 -2.8 2.1 2.1 c5 5 5.1 5.5 1.7 5.5 -1.7 0 -3.1 -0.4 -3.1 -1z"/>
 </g>
 <g fill="#3847d2">
  <path d="M184.8 191.5 l-6.6 -7.1 18.4 -17.4 c10.2 -9.5 18.3 -17.6 18.2 -17.9 -0.2 -0.3 -8.3 -8.2 -18 -17.5 -9.8 -9.2 -17.8 -17.2 -17.8 -17.7 0 -0.5 2.9 -3.9 6.4 -7.6 l6.4 -6.8 12.7 12 c7.1 6.6 17.5 16.5 23.1 22 16.7 16.2 16.7 16.1 -11.8 43 -11.6 11 -21.9 20.5 -22.7 21.1 -1.3 0.9 -2.8 -0.1 -8.3 -6.1z"/>
  <path d="M72.9 177.5 c-10.6 -11.3 -19.9 -21.5 -20.6 -22.8 -2 -3.5 -1.6 -9.1 0.9 -12.3 1.2 -1.6 9.6 -10.8 18.7 -20.4 9 -9.6 17.4 -18.5 18.6 -19.8 l2.2 -2.3 7.3 6.9 7.4 6.9 -16.8 17.6 -16.8 17.7 5.9 6.4 c3.2 3.6 10.7 11.7 16.7 18 l10.9 11.6 -6.8 6.3 c-3.7 3.4 -7.1 6.3 -7.5 6.5 -0.4 0.2 -9.5 -9 -20.1 -20.3z"/>
 </g>
</svg>